<svg width="48" height="24" viewBox="0 0 48 24" fill="none" xmlns="http://www.w3.org/2000/svg">
<path fill-rule="evenodd" clip-rule="evenodd" d="M2.25198 21.0941C-0.750699 18.1178 -0.750651 13.2923 2.25207 10.316L10.4076 2.23224C12.946 -0.283773 16.8176 -0.672891 19.7683 1.06489C20.681 1.6024 20.673 2.83544 19.9223 3.57952C19.1716 4.3236 17.9463 4.25956 16.9273 3.96416C15.6225 3.5859 14.1552 3.90678 13.1261 4.92679L4.97056 13.0105C3.4692 14.4987 3.46918 16.9114 4.97051 18.3996C6.47189 19.8878 8.90614 19.8878 10.4075 18.3996L26.7184 2.23234C29.7212 -0.743955 34.5896 -0.743968 37.5923 2.23231L45.7479 10.316C48.7507 13.2922 48.7507 18.1178 45.7479 21.0941C42.7452 24.0704 37.8768 24.0704 34.8741 21.0941L32.1555 18.3996L28.7574 21.7678C26.219 24.2838 22.3475 24.6729 19.3967 22.9351C18.484 22.3976 18.492 21.1646 19.2427 20.4205C19.9934 19.6764 21.2188 19.7404 22.2377 20.0358C23.5425 20.4141 25.0098 20.0932 26.0389 19.0732L29.5341 15.6088C30.9819 14.1738 33.3292 14.1738 34.7769 15.6088L37.5925 18.3996C39.0939 19.8877 41.5281 19.8877 43.0295 18.3996C44.5308 16.9114 44.5308 14.4987 43.0294 13.0105L34.8739 4.92688C33.3725 3.43874 30.9383 3.43875 29.4369 4.9269L13.126 21.0942C10.1232 24.0705 5.25473 24.0705 2.25198 21.0941Z" fill="black"/>
</svg>
