<svg width="368" height="280" viewBox="0 0 368 280" fill="none" xmlns="http://www.w3.org/2000/svg">
<path d="M22.9429 11.2098H0V1.56989H56.7768V11.2098H33.8338V74.8956H22.9429V11.2098Z" fill="#0F1829"/>
<path d="M64.8389 0H75.0021V31.43C77.8311 24.8235 84.1106 21.2586 91.9681 21.2586C103.914 21.2586 111.665 29.8438 111.665 42.419V74.8956H101.502V44.4141C101.502 36.0333 96.5959 30.3752 89.1391 30.3752C80.8646 30.3752 75.0021 37.0799 75.0021 46.3028V74.9201H64.8389V0Z" fill="#0F1829"/>
<path d="M172.521 57.7171C170.641 68.6162 161.075 75.7051 148.115 75.7051C131.762 75.7051 121.615 62.8191 121.615 48.1507C121.615 33.4823 130.822 21.2586 147.068 21.2586C163.315 21.2586 172.104 32.8854 172.104 46.2947C172.104 47.6519 171.998 49.3281 171.892 50.2766H131.566C132.384 60.2272 138.925 67.0381 148.115 67.0381C155.866 67.0381 160.895 63.6858 162.366 57.7089L172.521 57.7171ZM131.877 42.8442H161.843C161.214 34.7823 155.76 29.435 147.068 29.435C138.794 29.435 133.447 34.0465 131.877 42.8442Z" fill="#0F1829"/>
<path d="M4 205.832H32.3884C47.1549 205.832 56.0999 214.949 56.0999 227.908C56.0999 240.868 47.1958 249.985 32.4293 249.985H14.8828V279.109H4V205.832ZM32.0531 240.614C41.4805 240.614 45.1353 234.646 45.1353 227.941C45.1353 221.236 41.4642 215.259 32.0531 215.259H14.8828V240.606L32.0531 240.614Z" fill="#0F1829"/>
<path d="M106.025 245.12V279.166H95.8288V270.573C93.3187 276.231 86.6141 280 78.6584 280C67.8738 280 60.744 273.508 60.744 264.081C60.744 253.917 68.8141 247.63 81.2831 247.63H92.2803C94.6841 247.63 95.837 246.379 95.837 244.49C95.837 238.096 91.2337 233.697 83.0573 233.697C75.6986 233.697 70.3839 238.309 70.0732 243.656H60.6704C61.488 233.28 70.9318 225.529 83.4007 225.529C97.0144 225.529 106.025 233.386 106.025 245.12ZM95.8288 256.01V254.759H82.2479C75.3307 254.759 70.8009 258.316 70.8009 263.868C70.8009 268.692 74.7828 271.938 80.6126 271.938C90.3098 271.938 95.8288 265.732 95.8288 256.01Z" fill="#0F1829"/>
<path d="M133.44 209.814V226.371H149.049V235.169H133.44V261.562C133.44 267.22 136.474 270.368 141.617 270.368H149.057V279.166H140.799C130.121 279.166 123.31 272.666 123.31 261.881V235.169H112.517V226.371H123.31V209.814H133.44Z" fill="#0F1829"/>
<path d="M159.654 204.262H169.817V235.692C172.646 229.094 178.925 225.529 186.783 225.529C198.729 225.529 206.48 234.122 206.48 246.689V279.166H196.317V248.676C196.317 240.304 191.411 234.646 183.954 234.646C175.679 234.646 169.817 241.35 169.817 250.565V279.182H159.654V204.262Z" fill="#0F1829"/>
<path d="M85.1896 124.232H95.3528V132.089C98.4925 126.856 104.886 123.398 112.221 123.398C128.14 123.398 137.257 134.918 137.257 150.633C137.257 166.348 127.723 177.869 111.697 177.869C104.674 177.869 98.3944 174.598 95.3446 169.594V198.4H85.1896V124.232ZM126.987 150.633C126.987 139.636 120.495 132.302 110.749 132.302C101.003 132.302 94.5188 139.661 94.5188 150.633C94.5188 161.606 100.905 168.965 110.749 168.965C120.593 168.965 126.987 161.631 126.987 150.633Z" fill="#0F1829"/>
<path d="M162.71 107.683V124.232H178.319V133.038H162.71V159.439C162.71 165.097 165.743 168.237 170.886 168.237H178.327V177.043H170.044C159.358 177.043 152.547 170.502 152.547 159.758V133.038H141.754V124.232H152.547V107.683H162.71Z" fill="#0F1829"/>
<path d="M197.696 102.131V114.911H186.38V102.131H197.696ZM187.01 124.207H197.173V177.01H187.01V124.207Z" fill="#0F1829"/>
<path d="M210.018 124.232H220.182V133.667C222.381 127.69 228.039 123.398 235.79 123.398C244.375 123.398 250.769 127.273 252.863 134.191C254.956 128.214 261.857 123.398 270.033 123.398C281.48 123.398 288.577 131.255 288.577 143.512V177.035H278.455V146.357C278.455 137.976 274.268 132.318 267.245 132.318C259.183 132.318 254.367 137.976 254.367 146.357V177.051H244.204V146.357C244.204 137.976 240.009 132.318 233.1 132.318C225.03 132.318 220.214 137.976 220.214 146.357V177.051H210.018V124.232Z" fill="#0F1829"/>
<path d="M344.242 142.988V177.035H334.079V168.433C331.568 174.091 324.864 177.861 316.908 177.861C306.115 177.861 298.994 171.369 298.994 161.941C298.994 151.778 307.064 145.49 319.525 145.49H330.522C332.934 145.49 334.087 144.231 334.087 142.351C334.087 135.957 329.475 131.558 321.307 131.558C313.948 131.558 308.634 136.169 308.315 141.508H298.879C299.697 131.141 309.149 123.39 321.61 123.39C335.231 123.398 344.242 131.255 344.242 142.988ZM334.079 153.879V152.62H320.465C313.548 152.62 309.018 156.185 309.018 161.737C309.018 166.553 313 169.807 318.83 169.807C328.527 169.807 334.079 163.626 334.079 153.879Z" fill="#0F1829"/>
<path d="M356.49 102.131H366.653V177.035H356.49V102.131Z" fill="#0F1829"/>
<mask id="mask0_2_311" style="mask-type:alpha" maskUnits="userSpaceOnUse" x="0" y="102" width="76" height="76">
  <path fill-rule="evenodd" clip-rule="evenodd" d="M16.8883 108.404C23.1374 104.229 30.4843 102 38 102C48.0782 102 57.7437 106.004 64.8701 113.13C71.9964 120.256 76 129.922 76 140C76 147.516 73.7713 154.863 69.5958 161.112C65.4204 167.361 59.4856 172.231 52.542 175.107C45.5984 177.984 37.9579 178.736 30.5866 177.27C23.2153 175.804 16.4444 172.184 11.13 166.87C5.81556 161.556 2.19641 154.785 0.730176 147.413C-0.736062 140.042 0.0164649 132.402 2.89259 125.458C5.76872 118.514 10.6393 112.58 16.8883 108.404ZM39.0471 108.297C38.6566 107.907 38.0234 107.907 37.6329 108.297L6.29711 139.633C5.90658 140.023 5.90658 140.657 6.2971 141.047L37.6329 172.383C38.0234 172.773 38.6566 172.773 39.0471 172.383L70.3829 141.047C70.7734 140.657 70.7734 140.023 70.3829 139.633L39.0471 108.297Z" fill="#FF0000">
    <animateTransform attributeName="transform"
                          attributeType="XML"
                          type="rotate"
                          from="0 38 140"
                          to="360 38 140"
                          dur="5s"
                          repeatCount="indefinite"/>
  </path>
</mask>
<g mask="url(#mask0_2_311)">
<path d="M37.8648 102.139C30.3759 102.139 23.0551 104.36 16.8283 108.521C10.6014 112.681 5.7482 118.595 2.8823 125.514C0.0164063 132.433 -0.733443 140.046 0.727578 147.391C2.1886 154.736 5.79487 161.483 11.0904 166.779C16.3858 172.074 23.1327 175.68 30.4778 177.141C37.8228 178.602 45.4362 177.852 52.355 174.987C59.2739 172.121 65.1876 167.267 69.3482 161.041C73.5089 154.814 75.7296 147.493 75.7296 140.004C75.7296 129.962 71.7403 120.331 64.6393 113.23C57.5382 106.129 47.9072 102.139 37.8648 102.139Z" fill="#0F1829"/>
</g>
</svg>
