<svg width="230" height="26" viewBox="0 0 230 26" fill="none" xmlns="http://www.w3.org/2000/svg">
<g clip-path="url(#clip0_801_17)">
<path d="M157.83 0V20.2346H161.202V0H157.83Z" fill="black"/>
<path d="M0 0V3.28904H5.99469V20.2346H9.72649V3.28904H15.5132V0H0Z" fill="black"/>
<path d="M25.6257 5.46687C23.5453 5.46687 21.8685 6.36067 21.0601 7.94683V0H17.5367V20.2346H21.0601V12.3024C21.0601 10.168 22.4751 8.61118 24.4405 8.61118C26.2604 8.61118 27.5017 9.99591 27.5017 11.9849V20.2346H31.0264V11.2352C31.0264 7.83211 28.8899 5.46687 25.6257 5.46687Z" fill="black"/>
<path d="M44.45 15.2128C44.0773 16.5828 42.9024 17.3245 41.0962 17.3245C38.8604 17.3245 37.3685 15.8397 37.1113 13.5287H47.7772C47.805 13.2436 47.8342 12.816 47.8342 12.3303C47.8342 8.90671 45.6554 5.396 40.8058 5.396C36.0756 5.396 33.7244 8.9595 33.7244 12.7579C33.7244 16.5247 36.3633 20.2347 41.0936 20.2347C44.6489 20.2347 47.3436 18.2655 47.8886 15.2115L44.45 15.2128ZM40.8085 8.02243C42.9024 8.02243 44.1635 9.3924 44.3081 11.219H37.1961C37.5688 9.05057 38.8312 8.02243 40.8085 8.02243Z" fill="black"/>
<path d="M90.6017 6.07031C88.733 6.07031 87.1984 6.86114 86.3627 8.07678V6.29645H82.9619V26.3049H86.3627V18.9849C87.1364 20.0881 88.6492 20.7665 90.349 20.7665C94.4758 20.7665 97.1261 17.7706 97.1261 13.4191C97.1261 9.0676 94.6435 6.07031 90.6017 6.07031ZM89.9569 17.7706C87.6433 17.7706 86.137 16.0464 86.137 13.4191C86.137 10.7917 87.6459 9.06498 89.9595 9.06498C92.2177 9.06498 93.724 10.7891 93.724 13.4178C93.724 16.0464 92.2177 17.7706 89.9595 17.7706H89.9569Z" fill="black"/>
<path d="M108.592 9.09706V6.23757H104.681V2.02344H101.243V6.2427H98.4751V9.1022H101.243V15.3476C101.243 18.4575 103.255 20.2346 106.33 20.2346H108.592V17.3417H106.723C105.43 17.3417 104.681 16.6201 104.681 15.2038V9.09706H108.592Z" fill="black"/>
<path d="M110.616 0V3.84938H114.663V0H110.616ZM110.736 6.06908V20.2346H114.511V6.06908H110.736Z" fill="black"/>
<path d="M134.458 6.07031C132.151 6.07031 130.307 7.2868 129.643 8.72586C129.009 7.0105 127.424 6.07031 125.118 6.07031C123.07 6.07031 121.628 7.06551 120.908 8.47643V6.29161H117.361V20.2345H120.908V12.2372C120.908 10.2737 122.089 8.97402 123.964 8.97402C125.665 8.97402 126.731 10.2737 126.731 12.2372V20.2307H130.248V12.2372C130.248 10.2737 131.431 8.97402 133.334 8.97402C135.034 8.97402 136.102 10.2737 136.102 12.2372V20.2307H139.619V11.2151C139.619 8.25513 137.596 6.07031 134.458 6.07031Z" fill="black"/>
<path d="M148.109 6.07031C144.293 6.07031 141.817 8.29553 141.644 11.149H144.848C144.906 9.86611 146.041 8.69543 147.935 8.69543C149.829 8.69543 150.934 9.69453 150.934 11.0922C150.934 11.6624 150.585 12.0623 149.856 12.0623H147.147C143.857 12.0623 141.642 13.8031 141.642 16.5998C141.642 19.0824 143.624 20.909 146.536 20.909C148.632 20.909 150.321 19.9667 150.932 18.5399V20.6807H154.457V11.442C154.457 8.18202 151.836 6.07031 148.109 6.07031ZM150.938 14.6029C150.938 16.7701 149.629 18.3116 147.386 18.3116C146.046 18.3116 145.113 17.5699 145.113 16.456C145.113 15.2021 146.134 14.3733 147.647 14.3733H150.938V14.6029Z" fill="black"/>
<path d="M181.455 0.674316H173.343V20.2344H177.183V12.8015H181.455C185.67 12.8015 188.182 10.2864 188.182 6.73854C188.182 3.19074 185.67 0.674316 181.455 0.674316ZM181.279 9.69958H177.18V3.77622H181.279C183.53 3.77622 184.454 5.17208 184.454 6.73854C184.454 8.30501 183.533 9.69958 181.279 9.69958Z" fill="black"/>
<path d="M195.323 6.07031C191.506 6.07031 189.031 8.29704 188.856 11.1507H192.06C192.119 9.86645 193.253 8.69567 195.147 8.69567C197.041 8.69567 198.147 9.69485 198.147 11.094C198.147 11.6642 197.799 12.0641 197.07 12.0641H194.361C191.07 12.0641 188.856 13.8038 188.856 16.6008C188.856 19.0836 190.837 20.909 193.749 20.909C195.847 20.909 197.536 19.9679 198.147 18.5424V20.682H201.672V11.4358C201.672 8.1822 199.05 6.07031 195.323 6.07031ZM198.152 14.6037C198.152 16.7723 196.841 18.314 194.598 18.314C193.257 18.314 192.327 17.5709 192.327 16.4582C192.327 15.2016 193.346 14.3753 194.86 14.3753H198.152V14.6037Z" fill="black"/>
<path d="M213.812 9.1022V6.2427H209.639V2.02344H205.972V6.2427H203.021V9.1022H205.972V15.3489C205.972 18.4588 208.119 20.2346 211.397 20.2346H213.812V17.3481H211.814C210.444 17.3481 209.639 16.6265 209.639 15.2102V9.1022H213.812Z" fill="black"/>
<path d="M224.598 5.84538C222.518 5.84538 220.842 6.71757 220.034 8.26308V0H216.51V20.2346H220.034V12.5071C220.034 10.4273 221.449 8.9091 223.414 8.9091C225.234 8.9091 226.475 10.2583 226.475 12.1964V20.2346H230V11.4659C230 8.1513 227.862 5.84538 224.598 5.84538Z" fill="black"/>
<path d="M80.2639 10.7903C80.2637 8.7893 79.6503 6.8333 78.5013 5.16966C77.3523 3.50603 75.7194 2.20947 73.8089 1.44396C71.8985 0.67844 69.7964 0.478345 67.7685 0.868977C65.7406 1.25961 63.8779 2.22342 62.416 3.63853C60.9541 5.05365 59.9586 6.8565 59.5555 8.81912C59.1524 10.7817 59.3597 12.816 60.1512 14.6646C60.9427 16.5132 62.2829 18.0931 64.0023 19.2046C65.7217 20.3161 67.743 20.9092 69.8108 20.9089C71.1837 20.9088 72.5431 20.6469 73.8114 20.1383C75.0798 19.6297 76.2322 18.8843 77.2028 17.9447C78.1735 17.0051 78.9434 15.8897 79.4687 14.6621C79.9939 13.4346 80.2641 12.1189 80.2639 10.7903ZM68.7302 17.0829L63.3084 11.836C63.1661 11.6989 63.0532 11.536 62.9762 11.3565C62.8991 11.177 62.8595 10.9846 62.8595 10.7903C62.8595 10.596 62.8991 10.4036 62.9762 10.2241C63.0532 10.0447 63.1661 9.88171 63.3084 9.7446L68.7302 4.50295C68.8719 4.36525 69.0403 4.25599 69.2257 4.18144C69.4111 4.10689 69.61 4.06851 69.8108 4.06851C70.0116 4.06851 70.2104 4.10689 70.3958 4.18144C70.5812 4.25599 70.7496 4.36525 70.8913 4.50295L76.3131 9.74983C76.4554 9.88695 76.5683 10.0499 76.6453 10.2294C76.7224 10.4088 76.762 10.6012 76.762 10.7955C76.762 10.9899 76.7224 11.1823 76.6453 11.3617C76.5683 11.5412 76.4554 11.7041 76.3131 11.8413L70.8913 17.0881C70.7493 17.2255 70.5806 17.3343 70.395 17.4084C70.2094 17.4826 70.0104 17.5204 69.8096 17.52C69.6088 17.5195 69.4101 17.4806 69.2249 17.4056C69.0396 17.3306 68.8715 17.2209 68.7302 17.0829Z" fill="black"/>
</g>
<defs>
<clipPath id="clip0_801_17">
<rect width="230" height="26" fill="white"/>
</clipPath>
</defs>
</svg>
